HIERARCHY
ROOT Hips
{
	OFFSET 0.00000 0.00000 0.00000
	CHANNELS 6 Xposition Yposition Zposition Zrotation Yrotation Xrotation 
	JOINT LHipJoint
	{
		OFFSET 0 0 0
		CHANNELS 3 Zrotation Yrotation Xrotation
		JOINT LeftUpLeg
		{
			OFFSET 1.26600 -1.82114 0.91038
			CHANNELS 3 Zrotation Yrotation Xrotation
			JOINT LeftLeg
			{
				OFFSET 2.50076 -6.87080 0.00000
				CHANNELS 3 Zrotation Yrotation Xrotation
				JOINT LeftFoot
				{
					OFFSET 2.57364 -7.07102 0.00000
					CHANNELS 3 Zrotation Yrotation Xrotation
					JOINT LeftToeBase
					{
						OFFSET 0.13572 -0.37290 1.97004
						CHANNELS 3 Zrotation Yrotation Xrotation
						End Site
						{
							OFFSET 0.00000 -0.00000 1.01383
						}
					}
				}
			}
		}
	}
	JOINT RHipJoint
	{
		OFFSET 0 0 0
		CHANNELS 3 Zrotation Yrotation Xrotation
		JOINT RightUpLeg
		{
			OFFSET -1.20803 -1.82114 0.91038
			CHANNELS 3 Zrotation Yrotation Xrotation
			JOINT RightLeg
			{
				OFFSET -2.54916 -7.00377 0.00000
				CHANNELS 3 Zrotation Yrotation Xrotation
				JOINT RightFoot
				{
					OFFSET -2.56374 -7.04382 0.00000
					CHANNELS 3 Zrotation Yrotation Xrotation
					JOINT RightToeBase
					{
						OFFSET -0.23520 -0.64621 2.09921
						CHANNELS 3 Zrotation Yrotation Xrotation
						End Site
						{
							OFFSET -0.00000 -0.00000 1.10065
						}
					}
				}
			}
		}
	}
	JOINT LowerBack
	{
		OFFSET 0 0 0
		CHANNELS 3 Zrotation Yrotation Xrotation
		JOINT Spine
		{
			OFFSET 0.05492 2.10797 -0.12074
			CHANNELS 3 Zrotation Yrotation Xrotation
			JOINT Spine1
			{
				OFFSET 0.04577 2.11592 -0.04483
				CHANNELS 3 Zrotation Yrotation Xrotation
				JOINT Neck
				{
					OFFSET 0 0 0
					CHANNELS 3 Zrotation Yrotation Xrotation
					JOINT Neck1
					{
						OFFSET -0.10759 1.80167 0.15770
						CHANNELS 3 Zrotation Yrotation Xrotation
						JOINT Head
						{
							OFFSET 0.09237 1.77509 -0.40848
							CHANNELS 3 Zrotation Yrotation Xrotation
							End Site
							{
								OFFSET 0.03805 1.84093 -0.15754
							}
						}
					}
				}
				JOINT LeftShoulder
				{
					OFFSET 0 0 0
					CHANNELS 3 Zrotation Yrotation Xrotation
					JOINT LeftArm
					{
						OFFSET 3.42372 1.09575 -0.28209
						CHANNELS 3 Zrotation Yrotation Xrotation
						JOINT LeftForeArm
						{
							OFFSET 4.95681 -0.00000 0.00000
							CHANNELS 3 Zrotation Yrotation Xrotation
							JOINT LeftHand
							{
								OFFSET 3.40915 -0.00000 0.00000
								CHANNELS 3 Zrotation Yrotation Xrotation
								JOINT LeftFingerBase
								{
									OFFSET 0 0 0
									CHANNELS 3 Zrotation Yrotation Xrotation
									JOINT LeftHandIndex1
									{
										OFFSET 0.61640 -0.00000 0.00000
										CHANNELS 3 Zrotation Yrotation Xrotation
										End Site
										{
											OFFSET 0.49696 -0.00000 0.00000
										}
									}
								}
								JOINT LThumb
								{
									OFFSET 0 0 0
									CHANNELS 3 Zrotation Yrotation Xrotation
									End Site
									{
										OFFSET 0.50455 -0.00000 0.50455
									}
								}
							}
						}
					}
				}
				JOINT RightShoulder
				{
					OFFSET 0 0 0
					CHANNELS 3 Zrotation Yrotation Xrotation
					JOINT RightArm
					{
						OFFSET -3.24731 1.15872 -0.32221
						CHANNELS 3 Zrotation Yrotation Xrotation
						JOINT RightForeArm
						{
							OFFSET -5.35200 -0.00000 0.00000
							CHANNELS 3 Zrotation Yrotation Xrotation
							JOINT RightHand
							{
								OFFSET -3.43721 -0.00000 -0.00000
								CHANNELS 3 Zrotation Yrotation Xrotation
								JOINT RightFingerBase
								{
									OFFSET 0 0 0
									CHANNELS 3 Zrotation Yrotation Xrotation
									JOINT RightHandIndex1
									{
										OFFSET -0.72009 -0.00000 0.00000
										CHANNELS 3 Zrotation Yrotation Xrotation
										End Site
										{
											OFFSET -0.58056 -0.00000 0.00000
										}
									}
								}
								JOINT RThumb
								{
									OFFSET 0 0 0
									CHANNELS 3 Zrotation Yrotation Xrotation
									End Site
									{
										OFFSET -0.58942 -0.00000 0.58942
									}
								}
							}
						}
					}
				}
			}
		}
	}
}
MOTION
Frames: 14
Frame Time: 0.028169
0.00 0.00 0.00 0 0 0 0 0 0 -21 0 0 0 0 0 0 0 0 0 0 0 0 0 0 21 0 0 0 0 0 0 0 0 0 0 0 0 0 0 0 0 0 0 0 0 0 0 -16 0 0 21 0 0 11 0 0 0 -8 0 0 0 0 0 0 0 0 0 0 0 0 0 0 0 0 0 0 0 0 8 0 0 0 0 0 0 0 0 0 0 0 0 0 0 0 0 0
0.00 0.00 0.00 0.1732 -9.9126 0.1572 0.0000 0.0000 0.0000 -22.4285 -0.3156 -2.7403 1.7601 8.3474 23.7742 0.8779 -9.5642 -17.0196 0.0558 1.5246 4.1935 0.0000 0.0000 0.0000 18.3977 7.1721 -10.1771 -5.1540 -13.5551 41.4838 -1.1881 -0.3775 -20.7490 -0.2544 3.2452 -8.9623 0.0960 -0.0803 1.8593 2.2909 -0.1027 0.9517 2.2962 -0.0572 -0.0633 -10.4776 -1.8376 -12.9221 2.6679 -0.7974 37.8457 2.8591 -1.5274 15.6105 -0.0000 0.0000 0.0000 -91.7964 5.3827 29.9077 23.9923 -35.1561 -7.7021 -0.0000 0.0000 -9.0751 17.0407 26.3262 7.7408 -7.1250 0.0000 -0.0000 -14.1834 56.7752 -4.1509 -0.0000 0.0000 0.0000 85.5892 -2.4983 23.7074 -17.9377 28.0773 -4.5199 0.0000 -0.0000 -13.4043 -21.2666 9.5343 -3.6887 7.1250 -0.0000 -0.0000 4.0656 -19.7761 2.4564
0.00 0.00 0.00 2.8253 -8.1067 -1.3307 0.0000 0.0000 0.0000 -25.6202 1.0484 0.1981 1.2891 7.1941 20.2917 0.5816 -11.2780 -14.6899 0.1779 2.7165 7.4905 0.0000 0.0000 0.0000 13.9107 8.9959 -18.3534 -9.5035 -17.1210 57.8156 -0.2894 -1.4206 -10.7813 -0.0015 0.2518 -0.6918 -2.0675 -0.0130 3.6254 1.5127 -0.0771 1.6000 2.7164 -0.0525 -0.3851 -10.3267 -2.0844 -13.0214 2.7627 -1.2154 38.2230 2.8164 -1.6723 15.8620 0.0000 -0.0000 0.0000 -91.5936 4.9078 28.1034 22.3975 -33.4234 -6.8035 -0.0000 0.0000 -8.2686 16.4242 25.2348 7.1629 -7.1250 0.0000 -0.0000 -14.2377 55.5770 -3.7509 0.0000 -0.0000 0.0000 86.2225 -1.7299 20.4682 -16.0216 25.5499 -3.6553 0.0000 -0.0000 -11.1210 -22.5253 9.0592 -3.7362 7.1250 -0.0000 -0.0000 3.1537 -20.1936 1.8740
0.00 0.00 0.00 3.4827 -0.1143 -1.0319 0.0000 0.0000 0.0000 -26.0380 0.3748 13.2343 0.3457 3.7779 10.4528 0.3921 -12.7716 -13.3963 0.2712 3.3496 9.2536 0.0000 0.0000 0.0000 10.8755 6.5072 -31.0755 -1.4335 -7.5701 21.4157 -0.4014 0.5639 -11.7838 -0.2242 -3.0477 8.4116 -4.1449 -0.8795 4.1096 1.9788 -1.3075 2.6064 4.4156 -0.7216 0.5218 -11.0533 -3.4252 -12.5724 4.2807 -3.6005 37.0880 3.1819 -2.5138 15.4563 0.0000 0.0000 0.0000 -92.3681 7.4722 16.3744 9.5006 -15.9547 -1.3344 -0.0000 -0.0000 5.4116 19.1311 22.2017 7.4677 -7.1250 0.0000 -0.0000 -10.1275 53.0610 -2.0249 0.0000 0.0000 0.0000 88.9996 -6.6282 10.2108 -11.6677 19.3044 -1.9911 0.0000 -0.0000 -5.1869 -20.0050 9.8947 -3.5798 7.1250 -0.0000 -0.0000 4.9712 -19.4842 3.0398
0.00 0.00 0.00 1.5965 2.8367 0.1980 0.0000 0.0000 0.0000 -20.2350 -0.6440 18.7701 0.8656 5.9326 16.5890 -0.4980 -12.8249 1.1867 0.1235 -2.2656 -6.2403 0.0000 0.0000 0.0000 15.2274 3.5014 -27.4083 -1.7566 -8.3396 23.7504 -0.0359 -0.5442 -3.8223 -0.0662 -1.6600 4.5669 -2.1495 -0.3740 5.0287 2.5494 -0.5726 2.4011 3.8642 -0.3156 -0.3005 -10.6945 -3.7380 -13.7082 5.6394 -4.4742 36.3144 3.5351 -2.5980 15.4511 -0.0000 0.0000 0.0000 -94.4091 9.7327 17.3106 12.7440 -20.9110 -2.3611 -0.0000 0.0000 -1.4843 18.5294 21.7722 7.0866 -7.1250 0.0000 -0.0000 -10.5623 52.5170 -1.9719 -0.0000 0.0000 0.0000 88.3229 -6.1107 7.6605 -11.4828 19.0245 -1.9304 0.0000 -0.0000 -3.3515 -19.8265 8.9024 -3.1935 7.1250 -0.0000 -0.0000 5.0901 -20.5436 2.9918
0.00 0.00 0.00 -0.8653 3.8193 0.4032 0.0000 0.0000 0.0000 -15.8755 -1.8941 12.2237 2.6532 10.1113 29.3380 0.1548 -8.6988 14.9605 0.0171 0.8452 2.3230 0.0000 0.0000 0.0000 19.8297 1.4969 -24.4712 -1.5498 -7.8577 22.2827 0.0012 0.6777 -0.0463 -0.5806 -4.8790 13.5638 -0.0529 -0.7923 4.8048 3.3202 -1.0253 2.1051 3.4991 -0.5264 -0.4670 -10.5311 -3.5832 -13.4673 5.5767 -4.2959 36.2942 3.5102 -2.5115 15.3539 0.0000 -0.0000 0.0000 -93.6789 9.9533 22.8681 14.2610 -23.1066 -2.9297 -0.0000 0.0000 -4.8441 15.4257 19.8026 5.3404 -7.1250 0.0000 -0.0000 -12.8447 50.0215 -1.6134 0.0000 -0.0000 0.0000 86.8540 -5.3837 12.2786 -13.7118 22.3212 -2.7177 0.0000 -0.0000 -7.2913 -19.7414 9.4271 -3.3640 7.1250 -0.0000 -0.0000 5.1545 -19.9957 3.0936
0.00 0.00 0.00 -4.4341 5.3796 -0.4003 0.0000 0.0000 0.0000 -10.6721 -4.7022 3.1969 6.1754 14.5962 45.6817 0.7005 -8.2131 20.8613 0.4298 4.2073 11.6606 0.0000 0.0000 0.0000 25.0875 -0.3667 -20.3116 -1.1586 -6.8337 19.2237 -0.0007 0.1738 -0.4541 -0.6781 -5.2655 14.6672 3.1668 -1.1847 5.9432 4.4397 -1.3266 2.2146 2.8894 -0.6642 -1.0144 -10.6420 -3.6484 -12.8552 5.7827 -4.4719 35.4855 3.5644 -2.5622 14.8484 -0.0000 0.0000 0.0000 -93.2137 7.7700 24.4035 15.2867 -24.5440 -3.3441 -0.0000 0.0000 -3.6154 15.4071 19.6416 5.2923 -7.1250 0.0000 -0.0000 -12.8033 49.8583 -1.5560 -0.0000 0.0000 0.0000 84.7330 -3.2294 15.7755 -16.7616 26.5425 -3.9802 0.0000 -0.0000 -11.5432 -19.8740 9.2009 -3.3080 7.1250 -0.0000 -0.0000 5.0579 -20.2255 3.0090
0.00 0.00 0.00 -6.0153 5.8764 -1.4379 0.0000 0.0000 0.0000 -8.7081 -6.8344 -6.6361 9.2688 16.9776 57.0151 -0.2603 -9.0423 4.2329 0.0024 -0.3152 -0.8659 0.0000 0.0000 0.0000 27.8225 -1.9508 -15.6614 -0.9961 -6.3517 17.8084 -0.0202 0.3511 -2.5807 -0.5591 -4.7896 13.3096 4.6303 -0.8810 6.7545 4.8197 -0.7773 2.4109 2.4405 -0.3863 -1.2894 -10.4435 -3.7401 -11.7307 5.9419 -4.8218 35.2431 3.5407 -2.6685 14.5104 -0.0000 0.0000 0.0000 -92.4974 5.5934 25.6105 18.1424 -28.3391 -4.6166 -0.0000 0.0000 -5.3958 16.4686 21.5767 6.2044 -7.1250 0.0000 -0.0000 -12.5204 51.9609 -2.1740 -0.0000 0.0000 0.0000 82.6196 -0.8131 16.7236 -21.0532 31.8904 -6.0780 0.0000 -0.0000 -16.4991 -21.3059 8.2653 -3.2090 7.1250 -0.0000 -0.0000 4.0175 -21.1267 2.3050
0.00 0.00 0.00 -6.7624 0.7608 -0.8893 0.0000 0.0000 0.0000 -7.4167 -19.0819 -15.5599 5.3651 13.7835 42.3770 -0.0929 -14.1933 -8.8328 0.3241 -3.6589 -10.1190 0.0000 0.0000 0.0000 29.1249 1.2268 -13.0062 -1.7786 -8.3889 23.9018 -0.2350 4.3675 -8.6891 -0.8796 -5.9789 16.7231 7.4895 1.1204 7.4525 4.2105 2.1367 2.2536 -0.0216 1.0558 -1.7269 -10.7758 -3.9809 -12.3260 6.6710 -5.2750 35.3459 3.8354 -2.8012 14.7845 -0.0000 -0.0000 0.0000 -91.4023 5.6265 26.5875 25.2970 -36.5061 -8.4660 -0.0000 0.0000 -9.7292 20.6146 21.3722 7.8057 -7.1250 0.0000 -0.0000 -8.3328 52.4803 -1.5428 -0.0000 -0.0000 0.0000 80.5399 0.6497 20.6910 -31.6253 42.2464 -12.4882 0.0000 -0.0000 -19.6790 -22.3169 9.1872 -3.7496 7.1250 -0.0000 -0.0000 3.3064 -20.0711 1.9741
0.00 0.00 0.00 -1.4856 -52.9724 4.4410 0.0000 0.0000 0.0000 -19.5310 4.1750 -13.9090 2.4438 9.7351 28.1230 0.8441 3.0251 -18.7028 0.0030 0.3540 0.9726 0.0000 0.0000 0.0000 15.5362 19.0758 -13.6105 -2.5944 -10.0076 29.0013 4.8451 36.4380 6.0562 -1.5580 -7.8775 22.3426 -1.3787 -0.8237 6.4493 2.8071 -1.1890 2.7563 3.7524 -0.6396 -0.6848 -9.3555 -3.8460 -12.7316 5.1211 -5.9273 36.4363 2.7566 -3.4067 15.3459 -0.0000 0.0000 0.0000 -90.2649 6.2219 31.4735 16.8543 -26.6653 -4.0217 -0.0000 0.0000 -1.8712 17.0662 21.0670 6.2972 -7.1250 0.0000 -0.0000 -11.7346 51.5524 -1.9158 -0.0000 0.0000 0.0000 81.8938 -2.1400 18.6389 -19.8062 30.4082 -5.4329 0.0000 -0.0000 -18.7784 -21.0812 9.4016 -3.6032 7.1250 -0.0000 -0.0000 4.1958 -19.9308 2.5209
0.00 0.00 0.00 -1.8353 -63.5187 4.0016 0.0000 0.0000 0.0000 -17.8737 -5.3727 -9.4576 3.0395 10.7587 31.4703 0.5930 -3.8526 -13.7471 0.0044 -0.4301 -1.1818 0.0000 0.0000 0.0000 14.5098 20.0359 -12.8771 -2.1392 -9.1501 26.2661 5.0403 36.5116 21.8471 -3.4154 -11.3390 33.4318 -0.9858 -1.1906 6.5725 2.1092 -1.6961 3.6051 2.8307 -0.9125 0.1254 -10.4236 -3.8256 -12.1717 6.4532 -6.4861 37.0242 3.4274 -3.7262 15.6688 -0.0000 0.0000 0.0000 -86.3400 5.3567 34.2874 17.0920 -26.9788 -4.1290 -0.0000 0.0000 -1.8661 20.3129 20.8662 7.5111 -7.1250 0.0000 -0.0000 -8.4595 51.9055 -1.4470 -0.0000 0.0000 0.0000 82.0297 -3.6352 16.7067 -22.6226 33.6736 -6.9279 0.0000 -0.0000 -20.4854 -22.4937 9.9011 -4.0727 7.1250 -0.0000 -0.0000 3.1998 -19.2904 1.9661
0.00 0.00 0.00 -104.1700 -83.6367 105.6500 0.0000 0.0000 0.0000 -9.9676 -1.2655 -20.5082 9.2170 16.9453 56.8375 0.2127 -9.8469 -10.0535 0.0941 1.9779 5.4446 0.0000 0.0000 0.0000 29.7325 1.0253 -11.0200 -1.9887 -8.8425 25.3040 -0.7879 11.3283 -16.5991 -5.2257 -13.6335 41.7889 6.4791 -0.2141 6.2125 4.8937 -0.0015 2.1316 1.4263 -0.0820 -1.2698 -9.8293 -1.9381 -13.5118 4.2929 -3.2521 37.2889 2.8931 -2.6982 15.6560 0.0000 0.0000 0.0000 -91.9935 2.6132 29.5808 17.8434 -27.9562 -4.4756 -0.0000 0.0000 -3.5908 20.0098 21.5844 7.6302 -7.1250 0.0000 -0.0000 -9.0144 52.5898 -1.6949 0.0000 0.0000 0.0000 85.9591 -3.1651 11.7656 -14.5826 23.5615 -3.0572 0.0000 -0.0000 -9.8282 -21.5440 8.8464 -3.4744 7.1250 -0.0000 -0.0000 3.8541 -20.4907 2.2662
0.00 0.00 0.00 -101.3450 -82.2833 101.9450 0.0000 0.0000 0.0000 -6.6147 -1.6477 -29.6152 14.6397 19.2967 74.1491 0.3629 -11.2244 -12.4343 0.0430 1.3378 3.6788 0.0000 0.0000 0.0000 31.6747 -1.4218 -7.9560 -1.3982 -7.4804 21.1467 -0.7697 10.1709 -16.1608 -3.8929 -12.0166 35.7906 8.2822 0.1943 7.5790 5.3473 0.7524 2.3748 0.8450 0.2624 -1.7328 -9.9823 -2.3438 -13.4439 4.5939 -3.8860 36.9883 2.9404 -2.9190 15.5676 0.0000 0.0000 0.0000 -92.2697 2.0855 28.5154 17.4212 -27.4097 -4.2795 -0.0000 0.0000 -3.1543 20.1225 21.6233 7.6894 -7.1250 0.0000 -0.0000 -8.9156 52.6501 -1.6893 0.0000 0.0000 0.0000 84.7329 -1.9640 12.1949 -14.2465 23.0860 -2.9241 0.0000 -0.0000 -8.4068 -21.9348 9.8893 -3.9564 7.1250 -0.0000 -0.0000 3.5972 -19.3469 2.2067
0.00 0.00 0.00 -103.1080 -81.8357 103.1390 0.0000 0.0000 0.0000 -3.7534 -1.2964 -40.2048 20.7107 19.9879 92.0785 0.3567 -13.8366 -13.5410 0.0496 -1.4366 -3.9509 0.0000 0.0000 0.0000 32.4465 -3.0977 -4.5114 -0.8349 -5.8288 16.2886 -0.6965 8.2117 -15.0933 -2.9804 -10.6632 31.1522 8.6411 0.4021 8.3848 5.8922 1.1038 2.6180 1.1828 0.4150 -1.9100 -10.7511 -2.3856 -13.4038 4.4008 -3.6160 36.8587 3.0382 -2.9267 15.4910 -0.0000 -0.0000 0.0000 -93.1843 2.4435 26.5093 17.6104 -27.6554 -4.3669 -0.0000 0.0000 -2.5037 19.4241 21.3633 7.3199 -7.1250 0.0000 -0.0000 -9.5189 52.2593 -1.7137 -0.0000 -0.0000 0.0000 83.0467 -0.3889 13.9807 -13.7249 22.3401 -2.7227 0.0000 -0.0000 -7.5622 -22.2527 9.0951 -3.7006 7.1250 -0.0000 -0.0000 3.3501 -20.1747 1.9925
